<svg xmlns="http://www.w3.org/2000/svg" version="1.1" xml:space="preserve"
     height='100px' 
     width='100px'
     fill="#ffc926" 
     x="0px" 
     y="0px" 
     viewBox="0 0 100 100" 
     enable-background="new 0 0 100 100">
     <path fill="#ffc926" d="M78.8 28.4c-.5-.1-.9-.2-1.4-.2c-2.5 0-4.7 1.6-5.5 4.2l-2.9 13.6c-.1.6-.9.5-1 0l-6-36.1c-.5-3.1-3.2-5.3-6.2-5c-2.9.3-5 2.8-5 5.8c0 .2 0 .4 0 .6l2.2 22.4c.1.7-.9.8-1 .2L45.9 7.2c-.7-3-3.5-4.9-6.3-4.2c-2.5.5-4.2 2.8-4.2 5.4c0 .3 0 .6.1 1l4.6 28.5c.1.6-.8.9-1 .2l-7.3-23.3c-.9-2.7-3.6-4.2-6.2-3.5c-2.3.6-3.7 2.8-3.7 5.1c0 .4.1.9.2 1.3l6.4 26.5c.1.5-.7.8-.8.2l-4.3-13.4c-1.1-2.7-4.1-3.9-6.6-2.9l0 0c-2.6 1.1-3.4 4.1-2.8 6.9c2.2 9.3 5.1 21.8 7.1 26.6C24.6 70.8 34.1 78 38.3 81c1.4.9 2.3 2.4 2.7 4l2.2 10.3c.3 1.4 1.6 2.4 3 2.4h24.8c2 0 3.5-1.9 3-3.9l-3.4-12.5c-.5-2-.1-4.1 1.1-5.7c3.3-4.2 9.4-13.2 10.4-22.2l1.1-18.2C83.6 32.1 81.7 29.2 78.8 28.4zM52.9 75.3C40.5 68.9 34.7 64.8 33.1 57.8c-.9-4.2 1.7-8.3 5.9-9.3c0 0 0 0 0 0c0 0 0 0 0 0c4.1-.9 8.3 1.7 9.2 5.9c-.9-4.2 1.7-8.3 5.8-9.2c0 0 0 0 0 0c0 0 0 0 0 0c4.2-.9 8.3 1.7 9.3 5.9C64.9 57.9 60.9 64.7 52.9 75.3z" />
</svg>