<svg xmlns="http://www.w3.org/2000/svg" version="1.1" xml:space="preserve"
     height='36px' 
     width='36px'
     fill="#ffc926" 
     x="0px" 
     y="0px" 
     viewBox="0 0 36 36">
     <path fill="#ffc926" d="M 27.9496 10.4128 c -0.171 -0.0342 -0.3078 -0.0684 -0.4788 -0.0684 c -0.855 0 -1.6074 0.5472 -1.881 1.4364 l -0.9918 4.6512 c -0.0342 0.2052 -0.3078 0.171 -0.342 0 l -2.052 -12.3462 c -0.171 -1.0602 -1.0944 -1.8126 -2.1204 -1.71 c -0.9918 0.1026 -1.71 0.9576 -1.71 1.9836 c 0 0.0684 0 0.1368 0 0.2052 l 0.7524 7.6608 c 0.0342 0.2394 -0.3078 0.2736 -0.342 0.0684 L 16.6978 3.1624 c -0.2394 -1.026 -1.197 -1.6758 -2.1546 -1.4364 c -0.855 0.171 -1.4364 0.9576 -1.4364 1.8468 c 0 0.1026 0 0.2052 0.0342 0.342 l 1.5732 9.747 c 0.0342 0.2052 -0.2736 0.3078 -0.342 0.0684 l -2.4966 -7.9686 c -0.3078 -0.9234 -1.2312 -1.4364 -2.1204 -1.197 c -0.7866 0.2052 -1.2654 0.9576 -1.2654 1.7442 c 0 0.1368 0.0342 0.3078 0.0684 0.4446 l 2.1888 9.063 c 0.0342 0.171 -0.2394 0.2736 -0.2736 0.0684 l -1.4706 -4.5828 c -0.3762 -0.9234 -1.4022 -1.3338 -2.2572 -0.9918 l 0 0 c -0.8892 0.3762 -1.1628 1.4022 -0.9576 2.3598 c 0.7524 3.1806 1.7442 7.4556 2.4282 9.0972 C 9.4132 24.9136 12.6622 27.376 14.0986 28.402 c 0.4788 0.3078 0.7866 0.8208 0.9234 1.368 l 0.7524 3.5226 c 0.1026 0.4788 0.5472 0.8208 1.026 0.8208 h 8.4816 c 0.684 0 1.197 -0.6498 1.026 -1.3338 l -1.1628 -4.275 c -0.171 -0.684 -0.0342 -1.4022 0.3762 -1.9494 c 1.1286 -1.4364 3.2148 -4.5144 3.5568 -7.5924 l 0.3762 -6.2244 C 29.5912 11.6782 28.9414 10.6864 27.9496 10.4128 z M 19.0918 26.4526 C 14.851 24.2638 12.8674 22.8616 12.3202 20.4676 c -0.3078 -1.4364 0.5814 -2.8386 2.0178 -3.1806 c 0 0 0 0 0 0 c 0 0 0 0 0 0 c 1.4022 -0.3078 2.8386 0.5814 3.1464 2.0178 c -0.3078 -1.4364 0.5814 -2.8386 1.9836 -3.1464 c 0 0 0 0 0 0 c 0 0 0 0 0 0 c 1.4364 -0.3078 2.8386 0.5814 3.1806 2.0178 C 23.1958 20.5018 21.8278 22.8274 19.0918 26.4526 z" />
</svg>